[Header]
FileType HTR
DataType HTRS
FileVersion 1
NumSegments 64
NumFrames 3
DataFrameRate 24
EulerRotationOrder ZYX
CalibrationUnits mm
RotationUnits Degrees
GlobalAxisofGravity Y
BoneLengthAxis Y
ScaleFactor 1.0
[SegmentNames&Hierarchy]
Hips	GLOBAL
Spine	Hips
Spine1	Spine
Spine2	Spine1
Neck	Spine2
Head	Neck
LeftEye	Head
RightEye	Head
LeftShoulder	Spine2
LeftArm	LeftShoulder
LeftForeArm	LeftArm
LeftHand	LeftForeArm
LeftHandThumb1	LeftHand
LeftHandThumb2	LeftHandThumb1
LeftHandThumb3	LeftHandThumb2
LeftHandThumb4	LeftHandThumb3
LeftHandIndex1	LeftHand
LeftHandIndex2	LeftHandIndex1
LeftHandIndex3	LeftHandIndex2
LeftHandIndex4	LeftHandIndex3
LeftHandMiddle1	LeftHand
LeftHandMiddle2	LeftHandMiddle1
LeftHandMiddle3	LeftHandMiddle2
LeftHandMiddle4	LeftHandMiddle3
LeftHandRing1	LeftHand
LeftHandRing2	LeftHandRing1
LeftHandRing3	LeftHandRing2
LeftHandRing4	LeftHandRing3
LeftHandPinky1	LeftHand
LeftHandPinky2	LeftHandPinky1
LeftHandPinky3	LeftHandPinky2
LeftHandPinky4	LeftHandPinky3
RightShoulder	Spine2
RightArm	RightShoulder
RightForeArm	RightArm
RightHand	RightForeArm
RightHandPinky1	RightHand
RightHandPinky2	RightHandPinky1
RightHandPinky3	RightHandPinky2
RightHandPinky4	RightHandPinky3
RightHandRing1	RightHand
RightHandRing2	RightHandRing1
RightHandRing3	RightHandRing2
RightHandRing4	RightHandRing3
RightHandMiddle1	RightHand
RightHandMiddle2	RightHandMiddle1
RightHandMiddle3	RightHandMiddle2
RightHandMiddle4	RightHandMiddle3
RightHandIndex1	RightHand
RightHandIndex2	RightHandIndex1
RightHandIndex3	RightHandIndex2
RightHandIndex4	RightHandIndex3
RightHandThumb1	RightHand
RightHandThumb2	RightHandThumb1
RightHandThumb3	RightHandThumb2
RightHandThumb4	RightHandThumb3
LeftUpLeg	Hips
LeftLeg	LeftUpLeg
LeftFoot	LeftLeg
LeftToeBase	LeftFoot
RightUpLeg	Hips
RightLeg	RightUpLeg
RightFoot	RightLeg
RightToeBase	RightFoot
[BasePosition]
Hips	0	0	0	0	0	0	1
Spine	0	0	0	0	0	0	1
Spine1	0	0	0	0	0	0	1
Spine2	0	0	0	0	0	0	1
Neck	0	0	0	0	0	0	1
Head	0	0	0	0	0	0	1
LeftEye	0	0	0	0	0	0	1
RightEye	0	0	0	0	0	0	1
LeftShoulder	0	0	0	0	0	0	1
LeftArm	0	0	0	0	0	0	1
LeftForeArm	0	0	0	0	0	0	1
LeftHand	0	0	0	0	0	0	1
LeftHandThumb1	0	0	0	0	0	0	1
LeftHandThumb2	0	0	0	0	0	0	1
LeftHandThumb3	0	0	0	0	0	0	1
LeftHandThumb4	0	0	0	0	0	0	1
LeftHandIndex1	0	0	0	0	0	0	1
LeftHandIndex2	0	0	0	0	0	0	1
LeftHandIndex3	0	0	0	0	0	0	1
LeftHandIndex4	0	0	0	0	0	0	1
LeftHandMiddle1	0	0	0	0	0	0	1
LeftHandMiddle2	0	0	0	0	0	0	1
LeftHandMiddle3	0	0	0	0	0	0	1
LeftHandMiddle4	0	0	0	0	0	0	1
LeftHandRing1	0	0	0	0	0	0	1
LeftHandRing2	0	0	0	0	0	0	1
LeftHandRing3	0	0	0	0	0	0	1
LeftHandRing4	0	0	0	0	0	0	1
LeftHandPinky1	0	0	0	0	0	0	1
LeftHandPinky2	0	0	0	0	0	0	1
LeftHandPinky3	0	0	0	0	0	0	1
LeftHandPinky4	0	0	0	0	0	0	1
RightShoulder	0	0	0	0	0	0	1
RightArm	0	0	0	0	0	0	1
RightForeArm	0	0	0	0	0	0	1
RightHand	0	0	0	0	0	0	1
RightHandPinky1	0	0	0	0	0	0	1
RightHandPinky2	0	0	0	0	0	0	1
RightHandPinky3	0	0	0	0	0	0	1
RightHandPinky4	0	0	0	0	0	0	1
RightHandRing1	0	0	0	0	0	0	1
RightHandRing2	0	0	0	0	0	0	1
RightHandRing3	0	0	0	0	0	0	1
RightHandRing4	0	0	0	0	0	0	1
RightHandMiddle1	0	0	0	0	0	0	1
RightHandMiddle2	0	0	0	0	0	0	1
RightHandMiddle3	0	0	0	0	0	0	1
RightHandMiddle4	0	0	0	0	0	0	1
RightHandIndex1	0	0	0	0	0	0	1
RightHandIndex2	0	0	0	0	0	0	1
RightHandIndex3	0	0	0	0	0	0	1
RightHandIndex4	0	0	0	0	0	0	1
RightHandThumb1	0	0	0	0	0	0	1
RightHandThumb2	0	0	0	0	0	0	1
RightHandThumb3	0	0	0	0	0	0	1
RightHandThumb4	0	0	0	0	0	0	1
LeftUpLeg	0	0	0	0	0	0	1
LeftLeg	0	0	0	0	0	0	1
LeftFoot	0	0	0	0	0	0	1
LeftToeBase	0	0	0	0	0	0	1
RightUpLeg	0	0	0	0	0	0	1
RightLeg	0	0	0	0	0	0	1
RightFoot	0	0	0	0	0	0	1
RightToeBase	0	0	0	0	0	0	1
[Hips]
44	13.56465244	1013.601013	-17.17276192	1.177277088	2.697057009	-5.447981358	1.0
45	12.95430088	1016.57666	-13.87418365	-0.07568494976	0.3134893775	-5.033071995	1.0
46	12.12091351	1019.723755	-10.40179825	-1.125316262	-1.358070612	-4.693258286	1.0
[Spine]
44	0	101.8159943	1.315000057	3.95007062	3.324073553	2.708990097	1.0
45	0	101.8159943	1.315000057	4.148210049	3.25267458	2.926476479	1.0
46	0	101.8159943	1.315000057	4.269331455	2.931013346	3.019269228	1.0
[Spine1]
44	0	100.8349991	-10.00800037	1.29398036	0.734811306	1.530530334	1.0
45	0	100.8349991	-10.00800037	1.343033433	0.7554368973	1.585321546	1.0
46	0	100.8349991	-10.00800037	1.380226612	0.6940802336	1.608923316	1.0
[Spine2]
44	0	91	-13.73399925	1.261349559	0.7680884004	1.537427902	1.0
45	0	91	-13.73399925	1.312349916	0.7857632041	1.590128779	1.0
46	0	91	-13.73399925	1.351333976	0.7223650813	1.612331748	1.0
[Neck]
44	0	166.7169952	-25.16200066	6.132582664	-1.716210008	0.08929071575	1.0
45	0	166.7169952	-25.16200066	5.967363834	-1.352937818	-0.02385636792	1.0
46	0	166.7169952	-25.16200066	5.924102783	-1.030973673	0.04900598899	1.0
[Head]
44	0	96.17900085	16.84999847	-9.16411972	-8.052892685	6.636054039	1.0
45	0	96.17900085	16.84999847	-8.691731453	-6.068405151	5.013927937	1.0
46	0	96.17900085	16.84999847	-8.540980339	-4.101527691	3.506727457	1.0
[LeftEye]
44	30.6760006	64.09500122	92.83599854	0	0	0	1.0
45	30.6760006	64.09500122	92.83599854	0	0	0	1.0
46	30.6760006	64.09500122	92.83599854	0	0	0	1.0
[RightEye]
44	-30.6760006	64.09500122	92.83499908	0	0	0	1.0
45	-30.6760006	64.09500122	92.83499908	0	0	0	1.0
46	-30.6760006	64.09500122	92.83499908	0	0	0	1.0
[LeftShoulder]
44	45.70400238	109.4599991	-26.28000069	4.997032642	-17.6832943	-13.0636034	1.0
45	45.70400238	109.4599991	-26.28000069	4.960390091	-17.420084	-12.99435043	1.0
46	45.70400238	109.4599991	-26.28000069	4.891272068	-17.31530762	-12.70516014	1.0
[LeftArm]
44	105.923996	-5.24600029	-22.32099915	25.03854179	-4.606723309	-65.19994354	1.0
45	105.923996	-5.24600029	-22.32099915	24.08862877	-4.92444849	-64.99246979	1.0
46	105.923996	-5.24600029	-22.32099915	23.5825386	-5.408268929	-64.95520782	1.0
[LeftForeArm]
44	278.414978	-0.0009999999311	0	3.203625511e-06	-23.6071682	-0.0001983252441	1.0
45	278.414978	-0.0009999999311	0	-1.002520821e-05	-21.93690681	-0.0001950561418	1.0
46	278.414978	-0.0009999999311	0	5.046511433e-06	-20.04336739	-0.0001975420309	1.0
[LeftHand]
44	283.2879944	0	0	-34.7851181	-6.176426411	0.2166774422	1.0
45	283.2879944	0	0	-34.98090363	-5.189902782	0.1085486934	1.0
46	283.2879944	0	0	-32.40061951	-4.573328495	-0.1148890257	1.0
[LeftHandThumb1]
44	24.6609993	-15.75	26.8239994	-0.4890350103	2.201268435	4.81849575	1.0
45	24.6609993	-15.75	26.8239994	-0.4889443815	2.201485395	4.818580627	1.0
46	24.6609993	-15.75	26.8239994	-0.4889754653	2.201413631	4.818532467	1.0
[LeftHandThumb2]
44	32.29800034	-18.64699936	18.64699936	16.33552933	22.42442131	22.24430847	1.0
45	32.29800034	-18.64699936	18.64699936	18.31313515	21.77795219	22.17476654	1.0
46	32.29800034	-18.64699936	18.64699936	19.40489769	21.5275116	22.27182198	1.0
[LeftHandThumb3]
44	26.52600098	-15.31499958	15.31499958	-12.8866024	7.142630577	8.013281822	1.0
45	26.52600098	-15.31499958	15.31499958	-13.00970078	6.372547626	7.943132877	1.0
46	26.52600098	-15.31499958	15.31499958	-13.08135223	5.93474102	7.943125248	1.0
[LeftHandThumb4]
44	19.54599953	-11.28499985	11.28499985	0	0	0	1.0
45	19.54599953	-11.28499985	11.28499985	0	0	0	1.0
46	19.54599953	-11.28499985	11.28499985	0	0	0	1.0
[LeftHandIndex1]
44	91.09299469	-5.170999527	22.60099792	-0.06576558203	-1.110185385	-9.297450066	1.0
45	91.09299469	-5.170999527	22.60099792	0.1626230031	-0.2870918512	-10.1973629	1.0
46	91.09299469	-5.170999527	22.60099792	0.2811429203	0.06009399891	-10.34555149	1.0
[LeftHandIndex2]
44	36.76399994	0	0	-0.2650342584	1.739849806	-17.32172775	1.0
45	36.76399994	0	0	-0.2652751207	1.740616322	-17.32961082	1.0
46	36.76399994	0	0	-0.265521735	1.741401672	-17.33769226	1.0
[LeftHandIndex3]
44	28.83100128	0	0	-0.05665046722	0.8118088841	-7.983668804	1.0
45	28.83100128	0	0	-0.05676205084	0.8126097918	-7.991569996	1.0
46	28.83100128	0	0	-0.05687298626	0.8134275675	-7.999616146	1.0
[LeftHandIndex4]
44	23.92700005	0	0	0	0	0	1.0
45	23.92700005	0	0	0	0	0	1.0
46	23.92700005	0	0	0	0	0	1.0
[LeftHandMiddle1]
44	95.33399963	0	0	-0.9226742387	3.112317324	-17.5709343	1.0
45	95.33399963	0	0	-0.9601430297	3.293037653	-18.09788132	1.0
46	95.33399963	0	0	-0.9717997313	3.373366594	-18.26057053	1.0
[LeftHandMiddle2]
44	36.98199844	0	0	-0.2672353387	1.746883273	-17.39404297	1.0
45	36.98199844	0	0	-0.2680126727	1.749341965	-17.41940117	1.0
46	36.98199844	0	0	-0.2679965794	1.74930048	-17.41892815	1.0
[LeftHandMiddle3]
44	29.50900078	0	0	-0.2987771034	1.844495296	-18.40049934	1.0
45	29.50900078	0	0	-0.2995768189	1.846923113	-18.42557526	1.0
46	29.50900078	0	0	-0.2995720506	1.846877217	-18.42514992	1.0
[LeftHandMiddle4]
44	28.3390007	0	0	0	0	0	1.0
45	28.3390007	0	0	0	0	0	1.0
46	28.3390007	0	0	0	0	0	1.0
[LeftHandRing1]
44	91.04499817	-0.4390000105	-18.65100098	-1.219283938	2.975767612	-21.62967682	1.0
45	91.04499817	-0.4390000105	-18.65100098	-1.282173038	3.091085434	-22.44770432	1.0
46	91.04499817	-0.4390000105	-18.65100098	-1.304281592	3.153377295	-22.73192024	1.0
[LeftHandRing2]
44	31.54000092	0	0	-0.3905419111	2.10017705	-21.06643295	1.0
45	31.54000092	0	0	-0.3887959719	2.095627546	-21.01854897	1.0
46	31.54000092	0	0	-0.3873320818	2.091826677	-20.97856712	1.0
[LeftHandRing3]
44	29.37700081	0	0	-0.2867179513	1.807865977	-18.02215958	1.0
45	29.37700081	0	0	-0.285207063	1.803198576	-17.97400284	1.0
46	29.37700081	0	0	-0.2839395106	1.799297571	-17.93379211	1.0
[LeftHandRing4]
44	26.47500038	0	0	0	0	0	1.0
45	26.47500038	0	0	0	0	0	1.0
46	26.47500038	0	0	0	0	0	1.0
[LeftHandPinky1]
44	80.77799988	-4.887000084	-38.06099701	-1.735427022	4.202791214	-27.43158913	1.0
45	80.77799988	-4.887000084	-38.06099701	-1.759841204	4.150101662	-27.68560791	1.0
46	80.77799988	-4.887000084	-38.06099701	-1.775216222	4.210646152	-27.884058	1.0
[LeftHandPinky2]
44	36	0	0	-0.2726436853	1.764054298	-17.5706768	1.0
45	36	0	0	-0.2710397243	1.758967161	-17.51833916	1.0
46	36	0	0	-0.2696947157	1.754718781	-17.4746151	1.0
[LeftHandPinky3]
44	21.14200211	0	0	-0.245626837	1.676381707	-16.67065048	1.0
45	21.14200211	0	0	-0.2440977991	1.671267986	-16.61828613	1.0
46	21.14200211	0	0	-0.2428358495	1.666996956	-16.57460213	1.0
[LeftHandPinky4]
44	19.75699997	0	0	0	0	0	1.0
45	19.75699997	0	0	0	0	0	1.0
46	19.75699997	0	0	0	0	0	1.0
[RightShoulder]
44	-45.70000076	109.4620056	-26.28000069	5.409580708	15.84530163	15.25917721	1.0
45	-45.70000076	109.4620056	-26.28000069	5.543565273	16.16103172	15.9254055	1.0
46	-45.70000076	109.4620056	-26.28000069	5.630787373	16.16605377	16.49548531	1.0
[RightArm]
44	-105.9280014	-5.248000145	-22.32099915	52.33641052	21.67796707	53.57639313	1.0
45	-105.9280014	-5.248000145	-22.32099915	51.58321762	19.254776	53.94681549	1.0
46	-105.9280014	-5.248000145	-22.32099915	49.79924393	17.33320045	55.15586853	1.0
[RightForeArm]
44	-278.414978	0	0	1.809779974e-06	58.59364319	-4.161422282e-07	1.0
45	-278.414978	0	0	2.598658057e-06	53.61718369	8.780226381e-06	1.0
46	-278.414978	0	0	2.7872602e-06	46.27871323	1.060581872e-05	1.0
[RightHand]
44	-283.2879944	0	0.0009999999311	-9.977953911	26.222332	16.45133209	1.0
45	-283.2879944	0	0.0009999999311	-9.771954536	26.22480202	15.90336514	1.0
46	-283.2879944	0	0.0009999999311	-9.598999023	24.43391609	16.39304543	1.0
[RightHandPinky1]
44	-80.76699829	-4.885000229	-38.06000137	-4.349882603	-6.746339798	51.58427048	1.0
45	-80.76699829	-4.885000229	-38.06000137	-4.700742245	-6.927643299	54.2640686	1.0
46	-80.76699829	-4.885000229	-38.06000137	-4.798288822	-6.702333927	56.16208267	1.0
[RightHandPinky2]
44	-36	0	0.0009999999311	-1.234148383	-3.149269819	42.80984879	1.0
45	-36	0	0.0009999999311	-1.420010448	-3.338553667	46.09375763	1.0
46	-36	0	0.0009999999311	-1.527255058	-3.438444138	47.90791321	1.0
[RightHandPinky3]
44	-21.14200211	0	0	-1.186193705	-3.096752167	41.91010666	1.0
45	-21.14200211	0	0	-1.369246602	-3.28898859	45.19564438	1.0
46	-21.14200211	0	0	-1.474948764	-3.39056778	47.0104332	1.0
[RightHandPinky4]
44	-19.75699997	0	0	0	0	0	1.0
45	-19.75699997	0	0	0	0	0	1.0
46	-19.75699997	0	0	0	0	0	1.0
[RightHandRing1]
44	-91.03599548	-0.4390000105	-18.65100098	-2.99465847	-3.539299488	45.72324371	1.0
45	-91.03599548	-0.4390000105	-18.65100098	-3.196306944	-4.171314716	48.03805542	1.0
46	-91.03599548	-0.4390000105	-18.65100098	-3.346777916	-4.392968655	49.75559235	1.0
[RightHandRing2]
44	-31.54000092	0	0	-1.477607131	-3.392992735	47.05496597	1.0
45	-31.54000092	0	0	-1.673112869	-3.564642906	50.27604294	1.0
46	-31.54000092	0	0	-1.775316	-3.647002697	51.90137482	1.0
[RightHandRing3]
44	-29.37700081	0	0	-1.300508857	-3.219376326	43.98487473	1.0
45	-29.37700081	0	0	-1.486745477	-3.401468039	47.20906448	1.0
46	-29.37700081	0	0	-1.584427476	-3.489178896	48.83435059	1.0
[RightHandRing4]
44	-26.47500038	0	0	0	0	0	1.0
45	-26.47500038	0	0	0	0	0	1.0
46	-26.47500038	0	0	0	0	0	1.0
[RightHandMiddle1]
44	-95.32500458	0	0	-2.542950869	-2.349016428	40.40533447	1.0
45	-95.32500458	0	0	-2.696005106	-3.121860027	42.21559525	1.0
46	-95.32500458	0	0	-2.821368933	-3.594223738	43.6928215	1.0
[RightHandMiddle2]
44	-36.98199844	0	0	-1.287297487	-3.2056849	43.74956894	1.0
45	-36.98199844	0	0	-1.470817804	-3.386674404	46.94014359	1.0
46	-36.98199844	0	0	-1.565217614	-3.472347021	48.51829529	1.0
[RightHandMiddle3]
44	-29.50900078	0	0	-1.342818379	-3.264587879	44.73320007	1.0
45	-29.50900078	0	0	-1.529736996	-3.442738295	47.93001556	1.0
46	-29.50900078	0	0	-1.625859499	-3.526937008	49.51196671	1.0
[RightHandMiddle4]
44	-28.3390007	0	0.0009999999311	0	0	0	1.0
45	-28.3390007	0	0.0009999999311	0	0	0	1.0
46	-28.3390007	0	0.0009999999311	0	0	0	1.0
[RightHandIndex1]
44	-91.08300018	-5.167999744	22.60099792	0.3814280033	-0.4731797874	27.42220306	1.0
45	-91.08300018	-5.167999744	22.60099792	0.480861634	-0.807454586	30.75701714	1.0
46	-91.08300018	-5.167999744	22.60099792	0.4226361215	-1.04003942	33.83683014	1.0
[RightHandIndex2]
44	-36.76399994	0	0	-1.242829323	-3.158621788	42.94812393	1.0
45	-36.76399994	0	0	-1.439297318	-3.356964588	46.4039917	1.0
46	-36.76399994	0	0	-1.547369838	-3.456517935	48.22293091	1.0
[RightHandIndex3]
44	-28.83100128	0	0	-0.771876812	-2.56174159	33.53132629	1.0
45	-28.83100128	0	0	-0.9342035651	-2.791033268	37.00677872	1.0
46	-28.83100128	0	0	-1.025292635	-2.907775879	38.83860397	1.0
[RightHandIndex4]
44	-23.92700005	0	0	0	0	0	1.0
45	-23.92700005	0	0	0	0	0	1.0
46	-23.92700005	0	0	0	0	0	1.0
[RightHandThumb1]
44	-24.64799881	-15.72700024	26.82600021	-1.658326864	-0.2895117104	-4.221446991	1.0
45	-24.64799881	-15.72700024	26.82600021	-1.658636093	-0.2885830104	-4.221148491	1.0
46	-24.64799881	-15.72700024	26.82600021	-1.658470392	-0.2891102731	-4.221319675	1.0
[RightHandThumb2]
44	-32.29800034	-18.64699936	18.64699936	18.66819191	-13.85194778	-26.32155991	1.0
45	-32.29800034	-18.64699936	18.64699936	19.13596153	-15.39382648	-25.65143776	1.0
46	-32.29800034	-18.64699936	18.64699936	19.92521095	-17.73373032	-25.01493835	1.0
[RightHandThumb3]
44	-26.52600098	-15.31399918	15.31399918	-14.6357975	-6.780162811	-13.53645706	1.0
45	-26.52600098	-15.31399918	15.31399918	-14.56129932	-6.779622078	-12.6120491	1.0
46	-26.52600098	-15.31399918	15.31399918	-14.50568676	-6.791225433	-11.96700382	1.0
[RightHandThumb4]
44	-19.54599953	-11.28499985	11.28499985	0	0	0	1.0
45	-19.54599953	-11.28499985	11.28499985	0	0	0	1.0
46	-19.54599953	-11.28499985	11.28499985	0	0	0	1.0
[LeftUpLeg]
44	82.07800293	-67.51699829	-15.99599934	-23.53620148	13.90202045	6.642511368	1.0
45	82.07800293	-67.51699829	-15.99599934	-20.75051498	14.92190361	6.927835941	1.0
46	82.07800293	-67.51699829	-15.99599934	-18.20021439	15.31941605	7.121285439	1.0
[LeftLeg]
44	0	-443.7049866	2.845999956	23.86854362	-4.316035748	1.7045964	1.0
45	0	-443.7049866	2.845999956	22.79065514	-3.20337677	2.243865013	1.0
46	0	-443.7049866	2.845999956	21.37327957	-2.147966862	2.94299984	1.0
[LeftFoot]
44	0	-444.2789917	-29.8219986	-1.559717178	0.6852782369	-4.622784138	1.0
45	0	-444.2789917	-29.8219986	-1.581283569	0.6982853413	-4.967811584	1.0
46	0	-444.2789917	-29.8219986	-1.345057487	0.6773762107	-5.411392212	1.0
[LeftToeBase]
44	0	-87.28699493	107.1060028	-4.928522587	-4.97983774e-06	-7.370702804e-08	1.0
45	0	-87.28699493	107.1060028	-4.928531647	5.816255907e-06	2.373867716e-07	1.0
46	0	-87.28699493	107.1060028	-4.928523064	2.439624723e-06	-1.161536034e-06	1.0
[RightUpLeg]
44	-82.07800293	-67.51699829	-15.99599934	-13.37059975	-9.797392845	5.610679626	1.0
45	-82.07800293	-67.51699829	-15.99599934	-11.26752472	-9.452039719	5.271395683	1.0
46	-82.07800293	-67.51699829	-15.99599934	-9.203118324	-9.425170898	4.962880611	1.0
[RightLeg]
44	0	-443.7049866	2.861999989	21.40125275	-8.654078484	-5.177034855	1.0
45	0	-443.7049866	2.861999989	20.16738701	-8.529349327	-5.690666199	1.0
46	0	-443.7049866	2.861999989	18.60993004	-8.53278923	-5.955374718	1.0
[RightFoot]
44	0	-444.2770081	-29.83799934	-8.897922516	-9.400580406	4.800694942	1.0
45	0	-444.2770081	-29.83799934	-8.243250847	-7.574317455	4.742731094	1.0
46	0	-444.2770081	-29.83799934	-7.540335655	-6.08298111	4.630456924	1.0
[RightToeBase]
44	0	-87.28699493	107.1060028	-7.282877922	1.220873128e-05	-3.925673298e-07	1.0
45	0	-87.28699493	107.1060028	-7.282876015	-4.556812655e-06	-6.846997849e-07	1.0
46	0	-87.28699493	107.1060028	-7.282873154	9.160457012e-06	-1.307321781e-06	1.0
[EndOfFile]
